<?xml version="1.0" standalone="no"?>
<!DOCTYPE svg PUBLIC "-//W3C//DTD SVG 20010904//EN"
 "http://www.w3.org/TR/2001/REC-SVG-20010904/DTD/svg10.dtd">
<svg version="1.0" xmlns="http://www.w3.org/2000/svg"
 width="200.000000pt" height="200.000000pt" viewBox="0 0 200.000000 200.000000"
 preserveAspectRatio="xMidYMid meet">

<g transform="translate(0.000000,200.000000) scale(0.100000,-0.100000)"
fill="#000000" stroke="none">
<path d="M223 1719 c-24 -12 -52 -37 -65 -57 l-23 -37 -3 -505 c-3 -566 -3
-565 66 -618 l35 -27 767 0 767 0 35 27 c69 53 69 52 66 618 l-3 505 -23 37
c-13 21 -40 45 -66 57 -42 21 -54 21 -777 21 -725 0 -735 0 -776 -21z m1517
-584 l0 -475 -745 0 -745 0 0 475 0 475 745 0 745 0 0 -475z m-710 -539 c28
-35 -11 -93 -47 -70 -36 22 -23 84 17 84 10 0 23 -7 30 -14z"/>
<path d="M1350 1445 l0 -25 145 0 145 0 0 25 0 25 -145 0 -145 0 0 -25z"/>
<path d="M926 1345 c-56 -20 -107 -65 -136 -121 -45 -88 -28 -232 34 -283 14
-12 16 -10 16 17 0 35 39 74 95 92 19 6 35 15 35 18 0 4 -11 25 -24 48 -30 53
-32 127 -4 167 19 26 25 29 64 24 24 -2 55 -12 70 -22 24 -15 25 -20 19 -68
-4 -29 -18 -71 -31 -95 -13 -23 -24 -45 -24 -48 0 -3 17 -12 38 -21 60 -25 90
-51 94 -81 5 -41 20 -33 51 27 37 74 38 156 1 229 -54 108 -182 158 -298 117z"/>
<path d="M1350 1335 l0 -25 145 0 145 0 0 25 0 25 -145 0 -145 0 0 -25z"/>
<path d="M1350 1215 c0 -25 1 -25 80 -25 79 0 80 0 80 25 0 25 -1 25 -80 25
-79 0 -80 0 -80 -25z"/>
<path d="M390 1025 l0 -25 145 0 145 0 0 25 0 25 -145 0 -145 0 0 -25z"/>
<path d="M390 910 l0 -31 143 3 142 3 0 25 0 25 -142 3 -143 3 0 -31z"/>
<path d="M390 795 c0 -25 1 -25 80 -25 79 0 80 0 80 25 0 25 -1 25 -80 25 -79
0 -80 0 -80 -25z"/>
<path d="M40 405 c0 -32 41 -94 77 -116 l38 -24 845 0 845 0 39 24 c35 22 75
84 76 119 0 9 -199 12 -960 12 -858 0 -960 -2 -960 -15z"/>
</g>
</svg>
